<?xml version="1.0" encoding="UTF-8"?>
<svg width="512" height="512" viewBox="0 0 512 512" xmlns="http://www.w3.org/2000/svg">
  <!-- Background - White as requested -->
  <rect width="512" height="512" rx="120" fill="white" />
  
  <!-- House Container -->
  <g transform="translate(56, 36) scale(0.8)">
    <!-- House Body/Structure -->
    <rect x="80" y="220" width="240" height="190" rx="8" fill="white" stroke="#dddddd" stroke-width="2" />
    
    <!-- Triangle Roof Outline -->
    <path d="M60 220L200 100L340 220H60Z" fill="none" stroke="#202060" stroke-width="2" />
    
    <!-- USA Flag inside the Roof Triangle -->
    <g>
      <clipPath id="roofClip">
        <path d="M61 219L200 101L339 219H61Z" />
      </clipPath>
      
      <g clip-path="url(#roofClip)">
        <!-- Navy blue rectangle for stars area -->
        <rect x="60" y="100" width="112" height="120" fill="#3C3B6E" />
        
        <!-- Stars as circles in a 5x4 grid -->
        <g>
          <circle cx="76" cy="110" r="4" fill="white" />
          <circle cx="106" cy="110" r="4" fill="white" />
          <circle cx="136" cy="110" r="4" fill="white" />
          <circle cx="166" cy="110" r="4" fill="white" />
          
          <circle cx="91" cy="130" r="4" fill="white" />
          <circle cx="121" cy="130" r="4" fill="white" />
          <circle cx="151" cy="130" r="4" fill="white" />
          
          <circle cx="76" cy="150" r="4" fill="white" />
          <circle cx="106" cy="150" r="4" fill="white" />
          <circle cx="136" cy="150" r="4" fill="white" />
          <circle cx="166" cy="150" r="4" fill="white" />
          
          <circle cx="91" cy="170" r="4" fill="white" />
          <circle cx="121" cy="170" r="4" fill="white" />
          <circle cx="151" cy="170" r="4" fill="white" />
          
          <circle cx="76" cy="190" r="4" fill="white" />
          <circle cx="106" cy="190" r="4" fill="white" />
          <circle cx="136" cy="190" r="4" fill="white" />
          <circle cx="166" cy="190" r="4" fill="white" />
        </g>
        
        <!-- Red and White Stripes filling right side of roof -->
        <g>
          <rect x="172" y="100" width="168" height="17" fill="#B22234" />
          <rect x="172" y="117" width="168" height="17" fill="white" />
          <rect x="172" y="134" width="168" height="17" fill="#B22234" />
          <rect x="172" y="151" width="168" height="17" fill="white" />
          <rect x="172" y="168" width="168" height="17" fill="#B22234" />
          <rect x="172" y="185" width="168" height="17" fill="white" />
          <rect x="172" y="202" width="168" height="18" fill="#B22234" />
        </g>
      </g>
    </g>
    
    <!-- Chimney -->
    <rect x="270" y="130" width="30" height="90" fill="#B22222" />
    <rect x="265" y="120" width="40" height="10" fill="#333333" />
    
    <!-- Windows - Build and Design Buttons -->
    <rect x="110" y="260" width="60" height="60" rx="4" fill="#73C7FF" stroke="#3057D4" stroke-width="2" />
    <g transform="translate(140, 290)">
      <path d="M-20 0H20M-10 -15V15M10 -15V15" stroke="#00254E" stroke-width="2" />
    </g>
    
    <rect x="230" y="260" width="60" height="60" rx="4" fill="#73C7FF" stroke="#3057D4" stroke-width="2" />
    <g transform="translate(260, 290)">
      <path d="M-20 0H20M-10 -15V15M10 -15V15" stroke="#00254E" stroke-width="2" />
    </g>
    
    <!-- Door - Finance Button -->
    <rect x="170" y="320" width="60" height="90" rx="4" fill="#FF9A3C" stroke="#B25929" stroke-width="2" />
    <circle cx="185" cy="365" r="4" fill="#333333" />
    <g transform="translate(200, 365)">
      <path d="M-15 0H15M0 -20V20" stroke="#7A4019" stroke-width="2" />
    </g>
    
    <!-- Foundation -->
    <rect x="70" y="410" width="260" height="20" rx="2" fill="#BBBBBB" />
    
    <!-- Flag-themed Driveway -->
    <g transform="translate(170, 430)">
      <rect x="0" y="0" width="60" height="5" fill="#B22234" />
      <rect x="0" y="5" width="60" height="5" fill="white" />
      <rect x="0" y="10" width="60" height="5" fill="#B22234" />
    </g>
  </g>
</svg>